<mxfile host="app.diagrams.net" modified="2023-11-24T08:55:01.713Z" agent="Mozilla/5.0 (Windows NT 10.0; Win64; x64) AppleWebKit/537.36 (KHTML, like Gecko) Chrome/119.0.6045.9 Safari/537.36" etag="OoMQdoEsR0qF5gwNGssu" version="22.1.3" type="github">
  <diagram id="xcjXb5juxU8BeRHJA2AN" name="Page-1">
    <mxGraphModel dx="2247" dy="863" grid="0" gridSize="10" guides="1" tooltips="1" connect="1" arrows="1" fold="1" page="1" pageScale="1" pageWidth="827" pageHeight="1169" math="0" shadow="0">
      <root>
        <mxCell id="0" />
        <mxCell id="1" parent="0" />
        <mxCell id="R9KR2YhZFUUJtLXl9Ry--2" value="医院1的数据库" style="shape=cylinder3;whiteSpace=wrap;html=1;boundedLbl=1;backgroundOutline=1;size=15;" parent="1" vertex="1">
          <mxGeometry x="100" y="505" width="60" height="80" as="geometry" />
        </mxCell>
        <mxCell id="R9KR2YhZFUUJtLXl9Ry--3" value="医院2的数据库" style="shape=cylinder3;whiteSpace=wrap;html=1;boundedLbl=1;backgroundOutline=1;size=15;" parent="1" vertex="1">
          <mxGeometry x="290" y="505" width="60" height="80" as="geometry" />
        </mxCell>
        <mxCell id="R9KR2YhZFUUJtLXl9Ry--4" value="医院3的数据库" style="shape=cylinder3;whiteSpace=wrap;html=1;boundedLbl=1;backgroundOutline=1;size=15;" parent="1" vertex="1">
          <mxGeometry x="460" y="505" width="60" height="80" as="geometry" />
        </mxCell>
        <mxCell id="R9KR2YhZFUUJtLXl9Ry--5" value="数据质量监控系统" style="rounded=0;whiteSpace=wrap;html=1;" parent="1" vertex="1">
          <mxGeometry x="250" y="200" width="120" height="60" as="geometry" />
        </mxCell>
        <mxCell id="R9KR2YhZFUUJtLXl9Ry--9" value="" style="rounded=0;whiteSpace=wrap;html=1;" parent="1" vertex="1">
          <mxGeometry x="-40" y="250" width="650" height="130" as="geometry" />
        </mxCell>
        <mxCell id="R9KR2YhZFUUJtLXl9Ry--6" value="配置目标数据库连接信息" style="rounded=0;whiteSpace=wrap;html=1;" parent="1" vertex="1">
          <mxGeometry x="70" y="280" width="120" height="60" as="geometry" />
        </mxCell>
        <mxCell id="R9KR2YhZFUUJtLXl9Ry--7" value="配置要监控的表" style="rounded=0;whiteSpace=wrap;html=1;" parent="1" vertex="1">
          <mxGeometry x="260" y="280" width="120" height="60" as="geometry" />
        </mxCell>
        <mxCell id="R9KR2YhZFUUJtLXl9Ry--8" value="配置监控规则" style="rounded=0;whiteSpace=wrap;html=1;" parent="1" vertex="1">
          <mxGeometry x="430" y="280" width="120" height="60" as="geometry" />
        </mxCell>
        <mxCell id="R9KR2YhZFUUJtLXl9Ry--10" value="" style="endArrow=classic;startArrow=classic;html=1;rounded=0;exitX=0.5;exitY=0;exitDx=0;exitDy=0;exitPerimeter=0;" parent="1" source="R9KR2YhZFUUJtLXl9Ry--2" edge="1">
          <mxGeometry width="50" height="50" relative="1" as="geometry">
            <mxPoint x="140" y="430" as="sourcePoint" />
            <mxPoint x="190" y="380" as="targetPoint" />
          </mxGeometry>
        </mxCell>
        <mxCell id="R9KR2YhZFUUJtLXl9Ry--13" value="下发监控规则&lt;br&gt;收集质控信息" style="edgeLabel;html=1;align=center;verticalAlign=middle;resizable=0;points=[];" parent="R9KR2YhZFUUJtLXl9Ry--10" vertex="1" connectable="0">
          <mxGeometry x="-0.3618" y="-2" relative="1" as="geometry">
            <mxPoint as="offset" />
          </mxGeometry>
        </mxCell>
        <mxCell id="R9KR2YhZFUUJtLXl9Ry--11" value="" style="endArrow=classic;startArrow=classic;html=1;rounded=0;exitX=0.5;exitY=0;exitDx=0;exitDy=0;exitPerimeter=0;" parent="1" source="R9KR2YhZFUUJtLXl9Ry--3" edge="1">
          <mxGeometry width="50" height="50" relative="1" as="geometry">
            <mxPoint x="260" y="505" as="sourcePoint" />
            <mxPoint x="320" y="380" as="targetPoint" />
          </mxGeometry>
        </mxCell>
        <mxCell id="R9KR2YhZFUUJtLXl9Ry--14" value="下发监控规则&lt;br&gt;收集质控信息" style="edgeLabel;html=1;align=center;verticalAlign=middle;resizable=0;points=[];" parent="R9KR2YhZFUUJtLXl9Ry--11" vertex="1" connectable="0">
          <mxGeometry x="-0.424" y="2" relative="1" as="geometry">
            <mxPoint as="offset" />
          </mxGeometry>
        </mxCell>
        <mxCell id="R9KR2YhZFUUJtLXl9Ry--12" value="" style="endArrow=classic;startArrow=classic;html=1;rounded=0;entryX=0.75;entryY=1;entryDx=0;entryDy=0;" parent="1" source="R9KR2YhZFUUJtLXl9Ry--4" target="R9KR2YhZFUUJtLXl9Ry--9" edge="1">
          <mxGeometry width="50" height="50" relative="1" as="geometry">
            <mxPoint x="400" y="515" as="sourcePoint" />
            <mxPoint x="440" y="370" as="targetPoint" />
            <Array as="points">
              <mxPoint x="450" y="390" />
            </Array>
          </mxGeometry>
        </mxCell>
        <mxCell id="R9KR2YhZFUUJtLXl9Ry--16" value="下发监控规则&lt;br&gt;收集质控信息" style="edgeLabel;html=1;align=center;verticalAlign=middle;resizable=0;points=[];" parent="R9KR2YhZFUUJtLXl9Ry--12" vertex="1" connectable="0">
          <mxGeometry x="-0.4524" y="1" relative="1" as="geometry">
            <mxPoint as="offset" />
          </mxGeometry>
        </mxCell>
        <mxCell id="mTmNPmENqSmozyjTKZsP-17" value="" style="edgeStyle=orthogonalEdgeStyle;rounded=0;orthogonalLoop=1;jettySize=auto;html=1;" edge="1" parent="1" source="mTmNPmENqSmozyjTKZsP-2" target="mTmNPmENqSmozyjTKZsP-16">
          <mxGeometry relative="1" as="geometry" />
        </mxCell>
        <mxCell id="mTmNPmENqSmozyjTKZsP-28" style="edgeStyle=orthogonalEdgeStyle;rounded=0;orthogonalLoop=1;jettySize=auto;html=1;" edge="1" parent="1" source="mTmNPmENqSmozyjTKZsP-2" target="mTmNPmENqSmozyjTKZsP-27">
          <mxGeometry relative="1" as="geometry" />
        </mxCell>
        <mxCell id="mTmNPmENqSmozyjTKZsP-2" value="评估方案" style="rounded=1;whiteSpace=wrap;html=1;" vertex="1" parent="1">
          <mxGeometry x="-423" y="774" width="120" height="60" as="geometry" />
        </mxCell>
        <mxCell id="mTmNPmENqSmozyjTKZsP-3" value="被监控机构" style="rounded=1;whiteSpace=wrap;html=1;" vertex="1" parent="1">
          <mxGeometry x="-602" y="776" width="120" height="60" as="geometry" />
        </mxCell>
        <mxCell id="mTmNPmENqSmozyjTKZsP-4" value="数据源" style="rounded=1;whiteSpace=wrap;html=1;" vertex="1" parent="1">
          <mxGeometry x="-270" y="774" width="120" height="60" as="geometry" />
        </mxCell>
        <mxCell id="mTmNPmENqSmozyjTKZsP-13" style="edgeStyle=orthogonalEdgeStyle;rounded=0;orthogonalLoop=1;jettySize=auto;html=1;" edge="1" parent="1" source="mTmNPmENqSmozyjTKZsP-10" target="mTmNPmENqSmozyjTKZsP-2">
          <mxGeometry relative="1" as="geometry">
            <Array as="points">
              <mxPoint x="-363" y="775" />
              <mxPoint x="-363" y="775" />
            </Array>
          </mxGeometry>
        </mxCell>
        <mxCell id="mTmNPmENqSmozyjTKZsP-22" value="1：1" style="edgeLabel;html=1;align=center;verticalAlign=middle;resizable=0;points=[];" vertex="1" connectable="0" parent="mTmNPmENqSmozyjTKZsP-13">
          <mxGeometry x="-0.2442" y="4" relative="1" as="geometry">
            <mxPoint as="offset" />
          </mxGeometry>
        </mxCell>
        <mxCell id="mTmNPmENqSmozyjTKZsP-14" style="edgeStyle=orthogonalEdgeStyle;rounded=0;orthogonalLoop=1;jettySize=auto;html=1;" edge="1" parent="1" source="mTmNPmENqSmozyjTKZsP-10" target="mTmNPmENqSmozyjTKZsP-4">
          <mxGeometry relative="1" as="geometry">
            <Array as="points">
              <mxPoint x="-363" y="730" />
              <mxPoint x="-212" y="730" />
            </Array>
          </mxGeometry>
        </mxCell>
        <mxCell id="mTmNPmENqSmozyjTKZsP-24" value="1:N" style="edgeLabel;html=1;align=center;verticalAlign=middle;resizable=0;points=[];" vertex="1" connectable="0" parent="mTmNPmENqSmozyjTKZsP-14">
          <mxGeometry x="0.1921" y="-2" relative="1" as="geometry">
            <mxPoint as="offset" />
          </mxGeometry>
        </mxCell>
        <mxCell id="mTmNPmENqSmozyjTKZsP-15" style="edgeStyle=orthogonalEdgeStyle;rounded=0;orthogonalLoop=1;jettySize=auto;html=1;entryX=0.5;entryY=0;entryDx=0;entryDy=0;" edge="1" parent="1">
          <mxGeometry relative="1" as="geometry">
            <mxPoint x="-365" y="708" as="sourcePoint" />
            <mxPoint x="-542" y="774" as="targetPoint" />
            <Array as="points">
              <mxPoint x="-365" y="730" />
              <mxPoint x="-542" y="730" />
            </Array>
          </mxGeometry>
        </mxCell>
        <mxCell id="mTmNPmENqSmozyjTKZsP-23" value="1:N" style="edgeLabel;html=1;align=center;verticalAlign=middle;resizable=0;points=[];" vertex="1" connectable="0" parent="mTmNPmENqSmozyjTKZsP-15">
          <mxGeometry x="0.2333" y="3" relative="1" as="geometry">
            <mxPoint as="offset" />
          </mxGeometry>
        </mxCell>
        <mxCell id="mTmNPmENqSmozyjTKZsP-10" value="监控任务" style="rounded=1;whiteSpace=wrap;html=1;" vertex="1" parent="1">
          <mxGeometry x="-423" y="650" width="120" height="60" as="geometry" />
        </mxCell>
        <mxCell id="mTmNPmENqSmozyjTKZsP-12" value="" style="edgeStyle=orthogonalEdgeStyle;rounded=0;orthogonalLoop=1;jettySize=auto;html=1;" edge="1" parent="1" source="mTmNPmENqSmozyjTKZsP-11" target="mTmNPmENqSmozyjTKZsP-10">
          <mxGeometry relative="1" as="geometry" />
        </mxCell>
        <mxCell id="mTmNPmENqSmozyjTKZsP-21" value="1：N" style="edgeLabel;html=1;align=center;verticalAlign=middle;resizable=0;points=[];" vertex="1" connectable="0" parent="mTmNPmENqSmozyjTKZsP-12">
          <mxGeometry x="-0.1667" y="2" relative="1" as="geometry">
            <mxPoint as="offset" />
          </mxGeometry>
        </mxCell>
        <mxCell id="mTmNPmENqSmozyjTKZsP-11" value="数据质量监控" style="rounded=1;whiteSpace=wrap;html=1;" vertex="1" parent="1">
          <mxGeometry x="-423" y="530" width="120" height="60" as="geometry" />
        </mxCell>
        <mxCell id="mTmNPmENqSmozyjTKZsP-19" value="" style="edgeStyle=orthogonalEdgeStyle;rounded=0;orthogonalLoop=1;jettySize=auto;html=1;exitX=0.5;exitY=1;exitDx=0;exitDy=0;" edge="1" parent="1" source="mTmNPmENqSmozyjTKZsP-16">
          <mxGeometry relative="1" as="geometry">
            <mxPoint x="-357" y="1001" as="sourcePoint" />
            <mxPoint x="-271" y="1059" as="targetPoint" />
            <Array as="points">
              <mxPoint x="-293" y="1059" />
              <mxPoint x="-273" y="1059" />
            </Array>
          </mxGeometry>
        </mxCell>
        <mxCell id="mTmNPmENqSmozyjTKZsP-25" value="1:N" style="edgeLabel;html=1;align=center;verticalAlign=middle;resizable=0;points=[];" vertex="1" connectable="0" parent="mTmNPmENqSmozyjTKZsP-19">
          <mxGeometry x="-0.2" y="3" relative="1" as="geometry">
            <mxPoint as="offset" />
          </mxGeometry>
        </mxCell>
        <mxCell id="mTmNPmENqSmozyjTKZsP-16" value="元数据" style="rounded=1;whiteSpace=wrap;html=1;" vertex="1" parent="1">
          <mxGeometry x="-353" y="902" width="120" height="60" as="geometry" />
        </mxCell>
        <mxCell id="mTmNPmENqSmozyjTKZsP-20" style="edgeStyle=orthogonalEdgeStyle;rounded=0;orthogonalLoop=1;jettySize=auto;html=1;entryX=0.5;entryY=1;entryDx=0;entryDy=0;" edge="1" parent="1" source="mTmNPmENqSmozyjTKZsP-18" target="mTmNPmENqSmozyjTKZsP-4">
          <mxGeometry relative="1" as="geometry" />
        </mxCell>
        <mxCell id="mTmNPmENqSmozyjTKZsP-26" value="包含" style="edgeLabel;html=1;align=center;verticalAlign=middle;resizable=0;points=[];" vertex="1" connectable="0" parent="mTmNPmENqSmozyjTKZsP-20">
          <mxGeometry x="0.2091" y="4" relative="1" as="geometry">
            <mxPoint as="offset" />
          </mxGeometry>
        </mxCell>
        <mxCell id="mTmNPmENqSmozyjTKZsP-18" value="数据源" style="rounded=1;whiteSpace=wrap;html=1;" vertex="1" parent="1">
          <mxGeometry x="-270" y="1033" width="120" height="60" as="geometry" />
        </mxCell>
        <mxCell id="mTmNPmENqSmozyjTKZsP-29" style="edgeStyle=orthogonalEdgeStyle;rounded=0;orthogonalLoop=1;jettySize=auto;html=1;" edge="1" parent="1" source="mTmNPmENqSmozyjTKZsP-27">
          <mxGeometry relative="1" as="geometry">
            <mxPoint x="-541" y="841" as="targetPoint" />
          </mxGeometry>
        </mxCell>
        <mxCell id="mTmNPmENqSmozyjTKZsP-30" value="包含" style="edgeLabel;html=1;align=center;verticalAlign=middle;resizable=0;points=[];" vertex="1" connectable="0" parent="mTmNPmENqSmozyjTKZsP-29">
          <mxGeometry x="0.212" y="1" relative="1" as="geometry">
            <mxPoint as="offset" />
          </mxGeometry>
        </mxCell>
        <mxCell id="mTmNPmENqSmozyjTKZsP-27" value="被监控机构" style="rounded=1;whiteSpace=wrap;html=1;" vertex="1" parent="1">
          <mxGeometry x="-497" y="902" width="120" height="60" as="geometry" />
        </mxCell>
      </root>
    </mxGraphModel>
  </diagram>
</mxfile>
